<?xml version="1.0" encoding="UTF-8" standalone="no"?>
<!-- Created with Inkscape (http://www.inkscape.org/) -->

<svg
   xmlns:dc="http://purl.org/dc/elements/1.1/"
   xmlns:cc="http://creativecommons.org/ns#"
   xmlns:rdf="http://www.w3.org/1999/02/22-rdf-syntax-ns#"
   xmlns:svg="http://www.w3.org/2000/svg"
   xmlns="http://www.w3.org/2000/svg"
   xmlns:sodipodi="http://sodipodi.sourceforge.net/DTD/sodipodi-0.dtd"
   xmlns:inkscape="http://www.inkscape.org/namespaces/inkscape"
   version="1.1"
   width="500"
   height="500"
   id="svg2"
   inkscape:version="0.48.4 r9939"
   sodipodi:docname="delta_black_noname (copy).svg">
  <sodipodi:namedview
     pagecolor="#ffffff"
     bordercolor="#666666"
     borderopacity="1"
     objecttolerance="10"
     gridtolerance="10"
     guidetolerance="10"
     inkscape:pageopacity="0"
     inkscape:pageshadow="2"
     inkscape:window-width="1871"
     inkscape:window-height="1056"
     id="namedview9"
     showgrid="false"
     inkscape:zoom="1.5696131"
     inkscape:cx="362.8478"
     inkscape:cy="293.04962"
     inkscape:window-x="49"
     inkscape:window-y="24"
     inkscape:window-maximized="1"
     inkscape:current-layer="svg2" />
  <defs
     id="defs4" />
  <metadata
     id="metadata7">
    <rdf:RDF>
      <cc:Work
         rdf:about="">
        <dc:format>image/svg+xml</dc:format>
        <dc:type
           rdf:resource="http://purl.org/dc/dcmitype/StillImage" />
        <dc:title />
      </cc:Work>
    </rdf:RDF>
  </metadata>
  <path
     style="fill:#000000;fill-opacity:1;stroke:none"
     d="m 169.51149,3.8230357 c -13.46648,0 -24.28766,10.8211913 -24.28766,24.2876783 l 0,7.860376 c -5.27088,0.942585 -10.42587,2.184155 -15.45581,3.709391 l -4.2393,-7.56598 C 118.96849,20.353994 104.22854,16.163038 92.468036,22.723265 80.70752,29.283494 76.516563,44.023432 83.0768,55.783947 l 3.473874,6.241198 c -4.68379,3.646828 -9.099213,7.614488 -13.218385,11.834724 L 67.091092,70.06216 c -11.517143,-6.978648 -26.405851,-3.332941 -33.384518,8.184211 -6.978648,11.517142 -3.33294,26.405869 8.184212,33.384519 l 4.769217,2.88508 c -2.271881,5.61984 -4.14116,11.42296 -5.564086,17.39881 l -3.650513,-0.11777 c -13.45913,-0.44532 -24.637213,10.03367 -25.082547,23.49281 -0.445334,13.45913 10.033688,24.66665 23.492809,25.11199 l 3.621071,0.11776 c 0.99537,5.89163 2.425326,11.66301 4.239305,17.25161 l -3.03228,1.61918 c -11.880772,6.33984 -16.349309,21.00327 -10.009468,32.88404 6.339842,11.88077 21.032713,16.34931 32.913485,10.00948 l 3.974347,-2.11966 c 4.652824,5.44632 9.783654,10.53 15.308597,15.16139 l -3.562193,5.91737 c -6.919994,11.55249 -3.19164,26.43509 8.360849,33.35508 11.552492,6.92 26.435081,3.19164 33.355081,-8.36085 l 4.20986,-7.03606 c 6.44675,2.20653 13.1236,3.9241 19.98951,5.15193 l 0,7.86037 c 0,13.46649 10.82118,24.31712 24.28766,24.31712 13.46649,0 24.31712,-10.85063 24.31712,-24.31712 l 0,-7.86037 c 5.03508,-0.90043 9.96266,-2.07044 14.77869,-3.50333 l 3.12059,5.56409 c 6.56023,11.76052 21.30019,15.95148 33.06069,9.39125 11.76051,-6.56025 15.95147,-21.30018 9.39124,-33.06069 l -2.23741,-4.03323 c 4.7084,-3.62638 9.1614,-7.54326 13.3067,-11.7464 l 2.50237,1.53086 c 11.51715,6.97865 26.40586,3.3035 33.38452,-8.21366 6.97866,-11.51714 3.33294,-26.40586 -8.18422,-33.38451 l -0.79486,-0.47103 c 2.30219,-5.60751 4.19721,-11.40321 5.65241,-17.36937 l 1.97245,0.0588 c 13.45911,0.44532 24.66665,-10.03368 25.11198,-23.49281 0.44532,-13.45913 -10.03368,-24.63721 -23.49281,-25.08254 l -1.73694,-0.0589 c -1.19255,-7.30954 -3.03534,-14.41806 -5.47576,-21.25539 l 2.3846,-1.26591 c 11.88077,-6.33984 16.31988,-21.032709 9.98003,-32.913478 -6.33984,-11.880771 -21.00327,-16.319868 -32.88404,-9.980028 l -4.5337,2.414049 c -4.52077,-5.004904 -9.44097,-9.654826 -14.7198,-13.924935 l 2.32573,-3.886029 c 6.91999,-11.552489 3.19163,-26.405654 -8.36085,-33.325639 -11.55249,-6.919994 -26.43509,-3.191649 -33.35509,8.360849 l -3.41499,5.711285 c -5.75783,-1.859821 -11.69868,-3.357586 -17.78153,-4.445382 l 0,-7.860375 c 0,-13.466488 -10.85063,-24.2876791 -24.31712,-24.2876791 z m 0.50048,64.0311523 c 51.79995,0 93.7946,41.046892 93.7946,91.674952 0,50.62804 -41.99465,91.67494 -93.7946,91.67494 -51.8,0 -93.794598,-41.0469 -93.794598,-91.67494 0,-50.62806 41.994598,-91.674952 93.794598,-91.674952 z"
     id="rect2987-6-3"
     inkscape:connector-curvature="0" />
  <path
     style="fill:#000000;fill-opacity:1;stroke:none"
     d="m 389.10036,162.79901 c -8.12864,0 -14.66051,6.5319 -14.66051,14.66052 l 0,4.74468 c -3.18161,0.56897 -6.29326,1.31841 -9.32943,2.23906 l -2.55893,-4.56698 c -3.95988,-7.09886 -12.85721,-9.6286 -19.95607,-5.66872 -7.09889,3.95988 -9.62862,12.8572 -5.66874,19.95607 l 2.09689,3.7673 c -2.82723,2.20131 -5.49246,4.59627 -7.97887,7.14367 l -3.7673,-2.29236 c -6.95198,-4.21246 -15.9391,-2.01183 -20.15156,4.94014 -4.21244,6.95198 -2.01183,15.93911 4.94016,20.15156 l 2.87879,1.74149 c -1.37135,3.39225 -2.49969,6.89513 -3.3586,10.50226 l -2.20352,-0.071 c -8.12419,-0.26881 -14.8715,6.05652 -15.14031,14.18072 -0.26881,8.12419 6.05654,14.88928 14.18072,15.15809 l 2.18575,0.071 c 0.60082,3.55629 1.46397,7.04001 2.55893,10.41341 l -1.83035,0.97738 c -7.17146,3.82684 -9.86876,12.67797 -6.04191,19.84945 3.82685,7.17145 12.69576,9.86876 19.86723,6.04191 l 2.39898,-1.27947 c 2.80854,3.2875 5.90561,6.35611 9.24059,9.15171 l -2.15022,3.57184 c -4.17705,6.97331 -1.92654,15.95674 5.04678,20.13378 6.9733,4.17705 15.95673,1.92654 20.13378,-5.04678 l 2.54115,-4.24709 c 3.89139,1.3319 7.92166,2.36866 12.06606,3.1098 l 0,4.74467 c 0,8.12864 6.53187,14.67829 14.66051,14.67829 8.12862,0 14.67829,-6.54965 14.67829,-14.67829 l 0,-4.74467 c 3.03926,-0.54352 6.01366,-1.24975 8.9207,-2.11467 l 1.88365,3.35859 c 3.95989,7.09888 12.85721,9.62863 19.95608,5.66873 7.09888,-3.95989 9.62862,-12.8572 5.66874,-19.95607 l -1.35055,-2.43453 c 2.84208,-2.18896 5.53001,-4.55327 8.03218,-7.09036 l 1.51049,0.92404 c 6.95198,4.21247 15.93909,1.99408 20.15155,-4.95791 4.21245,-6.95198 2.01182,-15.9391 -4.94015,-20.15154 l -0.4798,-0.28433 c 1.38965,-3.38481 2.53352,-6.88321 3.41191,-10.48449 l 1.1906,0.0355 c 8.12419,0.26881 14.88928,-6.05652 15.15809,-14.18072 0.26881,-8.12419 -6.05652,-14.8715 -14.18073,-15.14031 l -1.04844,-0.0355 c -0.71984,-4.41219 -1.8322,-8.70304 -3.30528,-12.83019 l 1.43939,-0.76413 c 7.17147,-3.82685 9.851,-12.69575 6.02414,-19.86721 -3.82685,-7.17147 -12.67798,-9.851 -19.84945,-6.02416 l -2.73663,1.45718 c -2.72883,-3.02105 -5.69876,-5.82785 -8.88516,-8.40537 l 1.40386,-2.34567 c 4.17705,-6.9733 1.92653,-15.93896 -5.04678,-20.116 -6.9733,-4.17705 -15.95673,-1.92656 -20.13378,5.04676 l -2.06136,3.44745 c -3.47553,-1.12263 -7.06154,-2.02671 -10.73327,-2.68332 l 0,-4.74467 c 0,-8.12864 -6.54967,-14.66053 -14.67829,-14.66053 z m 0.30209,38.65046 c 31.26746,0 56.61627,24.77671 56.61627,55.3368 0,30.56007 -25.34881,55.3368 -56.61627,55.3368 -31.26749,0 -56.61625,-24.77673 -56.61625,-55.3368 0,-30.56009 25.34876,-55.3368 56.61625,-55.3368 z"
     id="rect2987-6-3-2"
     inkscape:connector-curvature="0" />
  <path
     style="fill:#000000;fill-opacity:1;stroke:none"
     d="m 320.975,324.3111 c -7.36031,0 -13.27479,5.91449 -13.27479,13.2748 l 0,4.2962 c -2.88088,0.51519 -5.69841,1.19378 -8.44759,2.02742 l -2.31707,-4.13529 c -3.5856,-6.42787 -11.64192,-8.71851 -18.06981,-5.13292 -6.42789,3.58559 -8.71851,11.64192 -5.13292,18.0698 l 1.8987,3.41122 c -2.55999,1.99323 -4.9733,4.16182 -7.22469,6.46845 l -3.41124,-2.0757 c -6.29486,-3.81429 -14.43249,-1.82166 -18.24679,4.47321 -3.81429,6.29487 -1.82168,14.43251 4.47319,18.2468 l 2.6067,1.57689 c -1.24173,3.0716 -2.26343,6.24338 -3.04113,9.50958 l -1.99524,-0.0644 c -7.3563,-0.2434 -13.46584,5.48404 -13.70925,12.84034 -0.2434,7.35629 5.48405,13.48192 12.84035,13.72534 l 1.97915,0.0644 c 0.54403,3.22014 1.3256,6.37457 2.31705,9.4291 l -1.65735,0.885 c -6.49361,3.46513 -8.93594,11.47964 -5.47081,17.97325 3.46514,6.49363 11.49575,8.93597 17.98936,5.47084 l 2.17222,-1.15853 c 2.54309,2.97677 5.34741,5.75533 8.36715,8.28668 l -1.94697,3.23423 c -3.78223,6.31418 -1.74444,14.44849 4.56975,18.23071 6.31419,3.78223 14.44849,1.74444 18.23072,-4.56975 l 2.30095,-3.84565 c 3.52358,1.206 7.17291,2.14476 10.92557,2.81585 l 0,4.2962 c 0,7.36031 5.91448,13.29089 13.27479,13.29089 7.36031,0 13.29087,-5.93058 13.29087,-13.29089 l 0,-4.2962 c 2.752,-0.49214 5.44525,-1.13162 8.07752,-1.9148 l 1.70561,3.04114 c 3.58559,6.42789 11.64192,8.71852 18.06981,5.13293 6.42787,-3.5856 8.71851,-11.64193 5.13291,-18.06981 l -1.22288,-2.20442 c 2.57344,-1.98205 5.00729,-4.12289 7.27296,-6.42016 l 1.36773,0.8367 c 6.29487,3.81429 14.43251,1.80558 18.2468,-4.48929 3.81428,-6.29487 1.82167,-14.43252 -4.47321,-18.24681 l -0.43445,-0.25745 c 1.2583,-3.06486 2.29404,-6.23259 3.0894,-9.49349 l 1.07808,0.0321 c 7.35628,0.2434 13.48193,-5.48404 13.72533,-12.84034 0.2434,-7.35628 -5.48406,-13.46584 -12.84034,-13.70924 l -0.94936,-0.0321 c -0.6518,-3.99513 -1.65901,-7.8804 -2.99285,-11.61744 l 1.30335,-0.69191 c 6.4936,-3.46514 8.91986,-11.49575 5.45472,-17.98935 -3.46513,-6.49361 -11.47965,-8.91986 -17.97325,-5.45473 l -2.47798,1.31942 c -2.47088,-2.73549 -5.16009,-5.27697 -8.04532,-7.61087 l 1.27116,-2.12397 c 3.78223,-6.31419 1.74444,-14.43241 -4.56974,-18.21462 -6.31419,-3.78222 -14.44849,-1.74444 -18.23072,4.56975 l -1.86652,3.12158 c -3.14702,-1.01651 -6.39409,-1.83513 -9.71876,-2.42969 l 0,-4.2962 c 0,-7.36031 -5.93056,-13.27478 -13.29087,-13.27478 z m 0.27354,34.99718 c 28.31203,0 51.26483,22.43479 51.26483,50.10631 0,27.67151 -22.9528,50.10631 -51.26483,50.10631 -28.31206,0 -51.26484,-22.4348 -51.26484,-50.10631 0,-27.67152 22.95278,-50.10631 51.26484,-50.10631 z"
     id="rect2987-6-3-0"
     inkscape:connector-curvature="0" />
</svg>
