<?xml version="1.0" encoding="UTF-8" standalone="no"?>
<!-- Created with Inkscape (http://www.inkscape.org/) -->

<svg
   xmlns:dc="http://purl.org/dc/elements/1.1/"
   xmlns:cc="http://creativecommons.org/ns#"
   xmlns:rdf="http://www.w3.org/1999/02/22-rdf-syntax-ns#"
   xmlns:svg="http://www.w3.org/2000/svg"
   xmlns="http://www.w3.org/2000/svg"
   xmlns:sodipodi="http://sodipodi.sourceforge.net/DTD/sodipodi-0.dtd"
   xmlns:inkscape="http://www.inkscape.org/namespaces/inkscape"
   width="100mm"
   height="100mm"
   viewBox="0 0 354.33071 354.33071"
   id="svg2"
   version="1.1"
   inkscape:version="0.91 r13725"
   sodipodi:docname="datasets.svg">
  <defs
     id="defs4">
    <marker
       inkscape:stockid="DotS"
       orient="auto"
       refY="0"
       refX="0"
       id="DotS"
       style="overflow:visible"
       inkscape:isstock="true">
      <path
         id="path4249"
         d="m -2.5,-1 c 0,2.76 -2.24,5 -5,5 -2.76,0 -5,-2.24 -5,-5 0,-2.76 2.24,-5 5,-5 2.76,0 5,2.24 5,5 z"
         style="fill:#000000;fill-opacity:1;fill-rule:evenodd;stroke:#000000;stroke-width:1pt;stroke-opacity:1"
         transform="matrix(0.2,0,0,0.2,1.48,0.2)"
         inkscape:connector-curvature="0" />
    </marker>
    <marker
       inkscape:stockid="Arrow2Mstart"
       orient="auto"
       refY="0"
       refX="0"
       id="Arrow2Mstart"
       style="overflow:visible"
       inkscape:isstock="true">
      <path
         id="path4206"
         style="fill:#000000;fill-opacity:1;fill-rule:evenodd;stroke:#000000;stroke-width:0.625;stroke-linejoin:round;stroke-opacity:1"
         d="M 8.7185878,4.0337352 -2.2072895,0.01601326 8.7185884,-4.0017078 c -1.7454984,2.3720609 -1.7354408,5.6174519 -6e-7,8.035443 z"
         transform="scale(0.6,0.6)"
         inkscape:connector-curvature="0" />
    </marker>
    <marker
       inkscape:stockid="DotM"
       orient="auto"
       refY="0"
       refX="0"
       id="DotM"
       style="overflow:visible"
       inkscape:isstock="true">
      <path
         id="path4246"
         d="m -2.5,-1 c 0,2.76 -2.24,5 -5,5 -2.76,0 -5,-2.24 -5,-5 0,-2.76 2.24,-5 5,-5 2.76,0 5,2.24 5,5 z"
         style="fill:#000000;fill-opacity:1;fill-rule:evenodd;stroke:#000000;stroke-width:1pt;stroke-opacity:1"
         transform="matrix(0.4,0,0,0.4,2.96,0.4)"
         inkscape:connector-curvature="0" />
    </marker>
    <marker
       inkscape:stockid="Arrow2Send"
       orient="auto"
       refY="0"
       refX="0"
       id="marker4502"
       style="overflow:visible"
       inkscape:isstock="true">
      <path
         id="path4504"
         style="fill:#000000;fill-opacity:1;fill-rule:evenodd;stroke:#000000;stroke-width:0.625;stroke-linejoin:round;stroke-opacity:1"
         d="M 8.7185878,4.0337352 -2.2072895,0.01601326 8.7185884,-4.0017078 c -1.7454984,2.3720609 -1.7354408,5.6174519 -6e-7,8.035443 z"
         transform="matrix(-0.3,0,0,-0.3,0.69,0)"
         inkscape:connector-curvature="0" />
    </marker>
    <marker
       inkscape:stockid="Arrow2Send"
       orient="auto"
       refY="0"
       refX="0"
       id="Arrow2Send"
       style="overflow:visible"
       inkscape:isstock="true">
      <path
         id="path4215"
         style="fill:#000000;fill-opacity:1;fill-rule:evenodd;stroke:#000000;stroke-width:0.625;stroke-linejoin:round;stroke-opacity:1"
         d="M 8.7185878,4.0337352 -2.2072895,0.01601326 8.7185884,-4.0017078 c -1.7454984,2.3720609 -1.7354408,5.6174519 -6e-7,8.035443 z"
         transform="matrix(-0.3,0,0,-0.3,0.69,0)"
         inkscape:connector-curvature="0" />
    </marker>
    <marker
       inkscape:stockid="Arrow2Mend"
       orient="auto"
       refY="0"
       refX="0"
       id="Arrow2Mend"
       style="overflow:visible"
       inkscape:isstock="true">
      <path
         id="path4209"
         style="fill:#000000;fill-opacity:1;fill-rule:evenodd;stroke:#000000;stroke-width:0.625;stroke-linejoin:round;stroke-opacity:1"
         d="M 8.7185878,4.0337352 -2.2072895,0.01601326 8.7185884,-4.0017078 c -1.7454984,2.3720609 -1.7354408,5.6174519 -6e-7,8.035443 z"
         transform="scale(-0.6,-0.6)"
         inkscape:connector-curvature="0" />
    </marker>
    <inkscape:perspective
       sodipodi:type="inkscape:persp3d"
       inkscape:vp_x="140 : 1119.9999 : 1"
       inkscape:vp_y="354.99999 : 1170 : 1"
       inkscape:vp_z="619.99998 : 1180 : 1"
       inkscape:persp3d-origin="372.04723 : 350.78739 : 1"
       id="perspective4140" />
  </defs>
  <sodipodi:namedview
     id="base"
     pagecolor="#ffffff"
     bordercolor="#666666"
     borderopacity="1.0"
     inkscape:pageopacity="0.0"
     inkscape:pageshadow="2"
     inkscape:zoom="1.4"
     inkscape:cx="109.66225"
     inkscape:cy="170.34102"
     inkscape:document-units="px"
     inkscape:current-layer="layer1"
     showgrid="true"
     inkscape:window-width="1366"
     inkscape:window-height="704"
     inkscape:window-x="0"
     inkscape:window-y="27"
     inkscape:window-maximized="1">
    <inkscape:grid
       type="xygrid"
       id="grid4136" />
  </sodipodi:namedview>
  <metadata
     id="metadata7">
    <rdf:RDF>
      <cc:Work
         rdf:about="">
        <dc:format>image/svg+xml</dc:format>
        <dc:type
           rdf:resource="http://purl.org/dc/dcmitype/StillImage" />
        <dc:title></dc:title>
      </cc:Work>
    </rdf:RDF>
  </metadata>
  <g
     inkscape:label="Layer 1"
     inkscape:groupmode="layer"
     id="layer1"
     transform="translate(0,-698.0315)">
    <rect
       style="fill:none;fill-opacity:1;stroke:#000000;stroke-width:7.70223713;stroke-miterlimit:4;stroke-dasharray:none;stroke-opacity:1"
       id="rect4156"
       width="154.04475"
       height="154.04475"
       x="48.529339"
       y="743.8902" />
    <path
       style="fill:#000000;fill-opacity:1;stroke:none;stroke-width:3;stroke-miterlimit:4;stroke-dasharray:none;stroke-opacity:1"
       id="path4164"
       d="m 106.162,883.47478 c 4.35934,-6.08618 8.06078,-12.61004 11.52522,-19.23652 3.20448,-5.43675 4.67823,-11.59809 7.02661,-17.38003 0,0 17.09025,-7.77974 17.09025,-7.77974 l 0,0 c -0.38344,0.70548 -0.84864,1.37234 -1.15034,2.11644 -0.7542,1.86012 -1.14339,3.85186 -1.85376,5.72919 -1.26037,3.33075 -2.72673,6.59515 -4.35539,9.76051 -3.33443,6.51095 -7.11792,12.76517 -10.74301,19.11599 0,0 -17.53958,7.67416 -17.53958,7.67416 z"
       inkscape:connector-curvature="0" />
    <path
       style="fill:#000000;fill-opacity:1;stroke:none;stroke-width:3;stroke-miterlimit:4;stroke-dasharray:none;stroke-opacity:1"
       id="path4166"
       d="m 119.87968,847.3079 c -8.33975,0.0257 -16.56589,-0.8641 -24.762561,-2.35766 -5.066815,-1.00835 -9.895168,-2.80338 -14.583647,-4.93233 -1.441732,-0.6547 -4.598133,-2.12474 -5.975576,-3.18238 -0.714255,-0.54841 -1.275594,-1.27139 -1.91339,-1.90709 -0.36506,-0.6182 -0.951304,-1.15124 -1.095207,-1.85464 -0.331401,-1.62003 0.398951,-3.50873 1.812388,-4.41679 10.488906,-6.73857 14.022899,-9.67823 23.288692,-12.27284 2.8176,-0.85394 5.784691,-0.68705 8.649301,-1.24506 0.22825,-0.0444 3.78694,-0.90631 4.03505,-0.96621 0.63056,-0.14128 1.26114,-0.28262 1.8917,-0.42394 0,0 -15.063481,11.45767 -15.063481,11.45767 l 0,0 c -0.61838,0.1373 -1.23679,0.27463 -1.85521,0.41196 -4.153531,0.90849 -8.400109,1.14153 -12.510973,2.24095 -6.696684,2.19932 -15.313049,8.16506 8.989025,-6.31135 1.005527,-0.59897 -2.671547,0.95059 -2.803897,2.11348 -0.0606,0.53212 0.446421,0.97366 0.669633,1.46046 5.517962,5.57091 13.753503,7.7345 21.129933,9.55222 8.49242,1.38429 17.02674,2.01088 25.62845,1.35018 0,0 -15.53023,11.28337 -15.53023,11.28337 z"
       inkscape:connector-curvature="0" />
    <path
       style="fill:#000000;fill-opacity:1;stroke:none;stroke-width:3;stroke-miterlimit:4;stroke-dasharray:none;stroke-opacity:1"
       id="path4168"
       d="m 147.28008,817.26056 c 0.45395,-0.10553 0.91613,-0.18048 1.36188,-0.31666 1.16346,-0.35536 4.34376,-2.18851 3.28671,-1.58642 -26.79634,15.26264 -16.92189,10.68728 -12.16618,6.49041 2.48319,-2.71999 2.3252,-6.7678 2.45245,-10.23951 -0.15584,-1.58936 0.77749,-4.96216 -1.22332,-5.7775 -0.71159,-0.0935 -1.43084,-0.10014 -2.14702,-0.12298 0,0 15.67191,-11.12472 15.67191,-11.12472 l 0,0 c 0.98006,0.17844 1.93497,0.34966 2.75415,0.97007 2.14037,2.0749 2.02151,4.71264 1.82314,7.53196 -0.10071,2.78662 -0.24415,5.53969 -0.67082,8.29798 -0.10524,0.67959 -0.1017,1.3873 -0.32731,2.03691 -0.14634,0.42134 -0.50825,0.73315 -0.76237,1.09973 -6.1716,7.57664 -16.16384,11.19368 -25.16346,14.62275 0,0 15.11024,-11.88212 15.11024,-11.88212 z"
       inkscape:connector-curvature="0" />
    <path
       style="fill:#000000;fill-opacity:1;stroke:none;stroke-width:3;stroke-miterlimit:4;stroke-dasharray:none;stroke-opacity:1"
       id="path4170"
       d="m 112.88485,816.46213 c -2.48436,-1.97673 -5.99083,-2.07899 -8.58941,-3.76869 -0.53212,-0.34601 -0.97518,-0.81265 -1.46278,-1.21898 -0.43295,-0.53569 -0.95665,-1.00932 -1.29883,-1.60709 -1.935701,-3.38159 -2.686491,-7.75534 -3.106551,-11.57408 -0.12399,-4.2123 1.632781,-8.01854 4.381681,-11.11594 0,0 17.64589,-7.26236 17.64589,-7.26236 l 0,0 c -2.99801,2.42957 -5.13766,5.68753 -5.33548,9.64112 0.4478,4.0533 0.8629,8.67175 3.75589,11.77592 3.06367,2.02782 6.71019,2.91139 9.94167,4.64736 0,0 -15.93208,10.48274 -15.93208,10.48274 z"
       inkscape:connector-curvature="0" />
    <path
       style="fill:#000000;fill-opacity:1;stroke:none;stroke-width:3;stroke-miterlimit:4;stroke-dasharray:none;stroke-opacity:1"
       id="path4172"
       d="m 150.2178,840.76669 c 4.28691,-2.38782 7.85471,-5.63049 11.04035,-9.32158 3.6541,-5.14274 4.00171,-11.67772 4.31965,-17.77846 -0.32845,-2.87645 0.77185,-6.71313 -0.35299,-9.48037 0,0 16.84968,-9.35436 16.84968,-9.35436 l 0,0 c 1.17263,3.33524 -0.12992,7.06788 0.0808,10.50833 -0.40296,6.34932 -0.51181,13.06828 -3.62328,18.78493 -3.08359,3.68512 -6.28659,7.16223 -10.39788,9.72942 0,0 -17.91649,6.91209 -17.91649,6.91209 z"
       inkscape:connector-curvature="0" />
    <path
       style="fill:#000000;fill-opacity:1;stroke:none;stroke-width:3;stroke-miterlimit:4;stroke-dasharray:none;stroke-opacity:1"
       id="path4174"
       d="m 133.06645,792.56447 c 0.25571,-6.06877 0.2777,-12.14471 0.16893,-18.2171 0.3224,-4.43041 -1.42195,-7.67666 -4.33815,-10.81499 -1.48581,-1.55459 -3.06725,-2.82538 -5.21313,-3.17119 0,0 15.886,-10.88486 15.886,-10.88486 l 0,0 c 2.23295,0.87565 3.94654,2.45674 5.51215,4.25079 3.07294,3.49297 5.32918,7.31227 4.76825,12.15443 -0.10581,6.01502 -0.0938,12.03383 0.16893,18.04502 0,0 -16.95282,8.6379 -16.95282,8.6379 z"
       inkscape:connector-curvature="0" />
    <path
       style="fill:none;fill-rule:evenodd;stroke:#000000;stroke-width:7.70223713;stroke-linecap:butt;stroke-linejoin:miter;stroke-miterlimit:4;stroke-dasharray:none;stroke-opacity:1;marker-mid:url(#DotS);marker-end:url(#Arrow2Send)"
       d="m 138.38878,949.2831 77.02236,-115.53356 51.34825,64.18532 51.34826,-154.04472"
       id="path4176"
       inkscape:connector-curvature="0" />
    <rect
       style="fill:#ffffff;fill-opacity:1;stroke:#000000;stroke-width:7.70223713;stroke-miterlimit:4;stroke-dasharray:none;stroke-opacity:1"
       id="rect4692"
       width="102.6965"
       height="89.859436"
       x="151.48645"
       y="867.06726" />
    <rect
       style="fill:#ffffff;fill-opacity:1;stroke:#000000;stroke-width:7.70223713;stroke-miterlimit:4;stroke-dasharray:none;stroke-opacity:1"
       id="rect4692-3"
       width="102.6965"
       height="89.859436"
       x="134.76567"
       y="884.17908" />
    <rect
       style="fill:#ffffff;fill-opacity:1;stroke:#000000;stroke-width:7.70223713;stroke-miterlimit:4;stroke-dasharray:none;stroke-opacity:1"
       id="rect4692-6"
       width="102.6965"
       height="89.859436"
       x="118.29255"
       y="902.59387" />
    <rect
       style="fill:#ffffff;fill-opacity:1;stroke:#000000;stroke-width:7.70223713;stroke-miterlimit:4;stroke-dasharray:none;stroke-opacity:1"
       id="rect4692-7"
       width="102.6965"
       height="89.859436"
       x="100.52917"
       y="918.02454" />
    <path
       style="fill:none;fill-rule:evenodd;stroke:#000000;stroke-width:2.56741238px;stroke-linecap:butt;stroke-linejoin:miter;stroke-opacity:1"
       d="m 112.71465,949.2831 c 7.75005,4.22748 5.9803,-4.77282 9.37715,-6.47124 3.19377,-1.5969 -1.17063,3.76408 3.89019,-1.29675 0.30565,-0.30565 -0.38661,-1.10341 0,-1.29672 0.77322,-0.38663 1.729,0 2.5935,0 0.43225,0 0.86447,0 1.29672,0 0.43225,0 0.99109,-0.30565 1.29675,0 0.61127,0.61127 -0.6113,1.98218 0,2.59347 0.007,0.007 3.84685,-0.01 3.89022,0 0.93767,0.23441 1.6558,1.06232 2.59347,1.29672 0.83867,0.20976 1.75479,-0.20975 2.59346,0 0.93768,0.23441 1.65581,1.06232 2.5935,1.29675 0.96253,0.24057 4.78892,-0.39802 5.18694,0 0.30566,0.30566 -0.30564,0.9911 0,1.29675 0.61131,0.61127 1.82025,-0.38663 2.59349,0 1.0935,0.54676 1.49998,2.04671 2.59349,2.59347 0.34095,0.17048 4.50887,0 5.18694,0 4.32247,0 8.64494,0 12.96738,0 0.8521,0 3.15861,0.2439 3.89022,0 4.47016,-1.49005 0.96057,-1.29675 3.89022,-1.29675 0.43225,0 0.8645,0 1.29675,0 0.43225,0 0.99109,0.30566 1.29672,0 0.30566,-0.30562 0.41782,-1.40755 0,-1.29672 -1.76779,0.46892 -3.22787,1.72068 -4.84181,2.58102"
       id="path4721"
       inkscape:connector-curvature="0" />
    <path
       style="fill:none;fill-rule:evenodd;stroke:#000000;stroke-width:2.56741238px;stroke-linecap:butt;stroke-linejoin:miter;stroke-opacity:1"
       d="m 138.38878,962.12017 c 0.1869,0.47985 1.04044,1.25263 0.56061,1.43951 -0.47985,0.18692 -1.04912,-1.27667 -0.56061,-1.43951 1.40819,-0.4694 2.96677,0.11276 4.45083,0.14275 2.1608,0.0438 4.32246,0 6.48369,0 9.50942,0 19.01883,0 28.52827,0 2.59347,0 5.18694,0 7.78041,0 1.27821,0 3.87171,0 2.5935,0 -0.8645,0 -3.45414,0.0814 -2.5935,0 1.36312,-0.12866 2.73669,-0.0953 4.10504,-0.14275"
       id="path4723"
       inkscape:connector-curvature="0" />
    <path
       style="fill:none;fill-rule:evenodd;stroke:#000000;stroke-width:2.56741238px;stroke-linecap:butt;stroke-linejoin:miter;stroke-opacity:1"
       d="m 138.38878,974.95722 c -7.84471,3.95416 -9.96355,4.16332 -16.29698,4.16332 -0.43225,0 -0.8645,0 -1.29675,0 -0.43225,0 -0.99111,-0.30563 -1.29675,0 -0.61128,0.6113 0.38662,1.82027 0,2.5935 -0.27339,0.54673 -1.02335,0.74996 -1.29674,1.29672 -0.19331,0.38663 0.30563,0.99109 0,1.29675 -0.30564,0.30565 -0.93191,-0.23184 -1.29673,0 -1.5336,0.97457 -2.79345,2.32454 -4.19018,3.48678"
       id="path4725"
       inkscape:connector-curvature="0" />
    <path
       style="fill:none;fill-rule:evenodd;stroke:#000000;stroke-width:2.56741238px;stroke-linecap:butt;stroke-linejoin:miter;stroke-opacity:1"
       d="m 138.38878,987.79429 c 9.21503,-1.24992 18.51961,-0.89331 27.79213,-0.89331 1.29675,0 5.14474,-0.3282 3.89022,0 -1.95882,0.51246 -4.00549,0.59554 -6.00823,0.89331"
       id="path4727"
       inkscape:connector-curvature="0" />
    <path
       style="fill:#000000;fill-opacity:1;stroke:none;stroke-width:3;stroke-miterlimit:4;stroke-dasharray:none;stroke-opacity:1"
       id="path4199"
       d="m 71.137563,846.39846 c 4.618416,0.63354 9.240067,1.26725 13.86549,1.87807 4.23885,0.57956 8.514286,0.71777 12.785816,0.79929 3.725521,0.0624 7.450661,0.003 11.175951,-0.0329 2.2575,0.0206 4.5398,-0.25212 6.7561,0.22773 2.08424,0.47006 4.19699,0.79659 6.3279,0.94707 0.80108,0.0481 1.6034,0.0574 2.40561,0.0631 0,0 -15.62818,11.26471 -15.62818,11.26471 l 0,0 c -0.8113,-0.0565 -1.62288,-0.11092 -2.43198,-0.19435 -2.113,-0.2778 -4.1943,-0.73446 -6.30271,-1.04142 -2.180581,-0.0916 -4.363811,10e-4 -6.545595,-0.0606 -3.674583,-0.0231 -7.349218,-0.075 -11.02334,-0.13248 -4.303547,-0.10582 -8.609253,-0.28075 -12.860734,-1.01488 -4.659621,-0.68175 -9.335111,-1.38379 -14.054555,-1.41986 0,0 15.530227,-11.28334 15.530227,-11.28334 z"
       inkscape:connector-curvature="0" />
    <path
       style="fill:#000000;fill-opacity:1;stroke:none;stroke-width:3;stroke-miterlimit:4;stroke-dasharray:none;stroke-opacity:1"
       id="path4201"
       d="m 93.182112,869.73976 c 4.433197,0.15687 8.870388,0.14378 13.305538,0.10965 4.06632,-0.0272 8.13236,-0.0333 12.19873,-0.0155 3.55571,0.003 7.1116,-0.01 10.66695,-0.0644 2.801,-0.0155 5.60195,0.0231 8.40302,0.0231 1.89557,-0.0128 3.79085,-0.0155 5.68648,-0.0128 0,0 -15.42589,11.20758 -15.42589,11.20758 l 0,0 c -1.88298,10e-4 -3.76567,-5.4e-4 -5.64861,-0.0128 -2.82146,-1.8e-4 -5.64282,0.0377 -8.4642,0.0231 -3.49612,-0.0564 -6.99283,-0.0665 -10.48931,-0.0644 -4.052071,0.018 -8.103811,0.0128 -12.155804,-0.0155 -4.535771,-0.0358 -9.073133,-0.0411 -13.607105,0.10964 0,0 15.530201,-11.28337 15.530201,-11.28337 z"
       inkscape:connector-curvature="0" />
    <path
       style="fill:#000000;fill-opacity:1;stroke:none;stroke-width:3;stroke-miterlimit:4;stroke-dasharray:none;stroke-opacity:1"
       id="path4203"
       d="m 124.48195,858.79786 c 13.49124,-9.31565 20.26279,-12.70448 34.34967,-15.17305 5.42274,-0.84278 10.91566,-0.98034 16.39193,-1.06455 3.58045,0.14042 7.12938,-0.28485 10.64366,-0.94088 0.19486,-0.097 0.76226,-0.41622 0.58435,-0.29096 -16.01582,11.27662 -10.88339,11.00827 -22.713,11.69278 -5.39735,0.5652 -10.92173,-0.0262 -16.25238,1.027 -1.91707,0.55291 -3.73655,1.30686 -5.44895,2.3271 -0.42791,0.25495 -1.69246,1.05048 -1.25948,0.80427 15.03893,-8.55079 19.83206,-12.2634 14.21256,-7.98625 -1.83721,1.54844 -2.73997,3.5792 -3.28803,5.8562 -0.30201,1.45328 1.48743,1.27035 2.18129,2.27424 0.22927,0.33191 0.31425,0.74321 0.47141,1.11482 -8e-5,0.38391 0.1356,0.79264 -2.4e-4,1.15166 -0.15712,0.41531 -0.4468,0.81767 -0.83009,1.04191 -17.09417,10.00099 -12.78066,8.68139 -24.25853,11.24062 -3.55525,0.47574 -6.96459,1.46245 -10.03522,3.3227 41.09673,-19.27058 16.68679,-11.52489 13.53265,-7.38175 -0.12738,0.16713 -0.86879,1.46042 -0.94679,1.59493 -0.96133,1.52223 -2.36263,2.59994 -3.71861,3.73077 -8.82589,-0.95157 -13.64852,9.53279 -21.55032,11.65056 -0.19718,0.0529 -3.74932,0.67772 -3.94904,0.7131 -3.443901,0.40277 -6.903461,0.60979 -10.367341,0.72275 -2.156626,0.0562 -4.311635,-0.0357 -6.468288,-0.0342 -1.891181,0.18947 -3.914969,-0.29241 -5.790207,0.0783 13.581611,-11.29489 10.40318,-11.4341 19.447175,-11.34794 6.619841,-2.59743 16.878811,-9.16859 -10.868628,6.71533 1.786199,-1.0577 3.24431,-2.45303 3.882723,-4.45013 0.486961,-1.99013 0.323802,-4.0484 0.661365,-6.06029 -0.03004,-0.22492 -0.295611,-0.57917 -0.08986,-0.67473 19.563511,-9.08486 17.479591,-12.46188 18.003881,-0.51463 0.32601,2.95415 -0.30444,5.63167 -1.82628,8.1498 -5.00581,6.3695 -13.295394,8.74434 -20.100016,12.87013 -5.125068,3.1074 20.803156,-11.91573 15.594566,-8.95044 -5.764254,3.2816 -11.507682,6.59963 -17.261536,9.89942 -2.131697,0.37931 -3.90049,1.61264 -5.860812,2.42655 -1.812156,0.62416 -3.59145,1.22059 -5.446919,1.70152 -3.120202,0.86575 -6.3564,1.298 -9.573291,1.63022 -7.87053,0.68641 -9.965025,5.06991 13.513472,-11.05493 0.208217,-0.14301 0.505473,-0.003 0.758081,0.003 0.47076,0.01 0.941265,0.0313 1.411897,0.0469 4.527504,0.0932 9.056471,0.0735 13.584564,0.0485 4.19199,-0.0675 8.383944,7.3e-4 12.576064,-0.006 3.69574,0.0291 7.39058,-0.0691 11.08619,-0.0583 3.23471,-10e-4 6.46887,0.0206 9.70354,10e-4 2.83627,-0.18151 5.8929,0.61875 8.47223,-0.80675 5.71906,-4.24947 -0.17279,0.1733 -15.06799,8.60257 -0.12199,0.0691 0.22105,-0.20694 0.23927,-0.3458 0.0536,-0.40771 -1.83929,-0.77554 -1.84786,-0.77785 -2.73296,-0.61046 -5.54404,-0.66052 -8.33154,-0.68429 -1.93544,0.0155 -3.87083,0.0372 -5.80625,0.0485 -1.37164,0.13631 -2.80277,-0.18869 -4.16802,-0.01 -0.71099,0.0935 -1.38784,0.36505 -2.09087,0.50656 -3.277894,0.38034 -6.571994,0.55353 -9.865802,0.7197 -3.011857,0.15533 -6.026333,0.0206 -9.039781,0.003 -4.157592,-0.0498 -8.31626,-0.0355 -12.473235,0.0519 -1.780628,0.0441 -3.561797,0.0275 -5.342528,0.0589 -1.735982,0.0206 -2.481405,0.32268 -3.685829,-1.13949 -0.653611,-0.91939 -1.215592,-2.91394 0.06469,-3.69864 16.075699,-9.85336 11.269092,-8.4337 19.26897,-10.54919 2.834193,-0.72335 5.850953,-0.46142 8.524733,-1.70192 -5.297445,2.99846 -10.594889,5.99692 -15.892334,8.9954 0.300825,-0.23004 1.272769,-1.03583 0.830378,-1.52219 -0.305007,-0.33536 -1.955905,-0.84905 -2.090027,-0.89765 -3.390371,-0.92098 -6.911886,-1.14883 -10.408572,-1.23465 -4.336386,-0.1268 -8.674517,-0.13404 -13.011954,-0.0688 -9.340838,-0.006 -9.493983,3.4515 12.29698,-11.51004 0.30904,-0.21232 3.225928,-0.64209 3.368779,-0.6657 4.884939,-0.80802 9.83853,-1.1636 14.78144,-1.38674 2.272059,-0.27677 4.519005,-0.71248 6.778996,-1.06625 0,0 -15.262779,11.44254 -15.262779,11.44254 l 0,0 c -2.230413,0.32423 -4.46455,0.65018 -6.71689,0.77775 -4.899393,0.24237 -9.812469,0.56943 -14.615919,1.62992 -0.711866,0.17434 -1.425248,0.34255 -2.135599,0.52286 -0.510608,0.12965 -1.933287,0.74242 -1.527122,0.40693 14.65936,-12.10784 9.046945,-11.38825 18.280078,-11.23656 4.427811,0.0416 8.855647,-0.0549 13.282432,0.006 3.608241,0.29436 7.248857,0.72607 10.696994,1.87304 0.583702,0.29281 1.216055,0.50408 1.751156,0.87843 7.950117,5.56159 -11.836027,18.05205 -15.578623,14.84751 -2.768825,0.59041 -5.669872,0.55199 -8.351433,1.57441 -7.080846,2.94194 0.02669,0.0716 13.515322,-8.25548 0.40334,-0.24905 -0.952356,0.14127 -1.378572,0.34867 -0.30126,0.14661 -0.178693,0.14969 -0.01797,0.39156 0.929507,-0.0619 1.880013,-0.14968 2.8278,-0.0909 1.725712,0.032 3.451885,0.0155 5.177443,0.0627 4.101518,0.0973 8.205039,0.1112 12.307401,0.0665 3.05024,-0.0206 6.099117,-0.10496 9.148227,-0.18357 3.26711,-0.12071 6.54485,-0.33961 9.75841,-0.9695 2.1565,-0.3632 4.34048,-0.22079 6.52128,-0.27061 1.92455,-0.01 3.85101,-0.0336 5.77413,0.0533 2.92195,0.1356 5.88486,0.3132 8.68393,1.22969 10.82371,5.11226 -7.20202,12.97997 -14.27839,14.91651 -2.89181,0.46281 -5.83946,0.1597 -8.75689,0.24186 -3.23599,-0.018 -6.47155,0.003 -9.70759,10e-4 -3.64218,0.01 -7.283587,-0.0878 -10.925903,-0.058 -4.191556,-0.006 -8.382909,0.0647 -12.57444,0.006 -4.587582,-0.018 -9.17565,-0.018 -13.762616,0.0695 -1.769331,0.0403 -2.589287,0.0678 -2.519863,0.0128 17.210264,-13.85045 9.004327,-10.83841 17.540023,-11.56892 3.206697,-0.3886 6.40197,-0.90434 9.47103,-1.94908 1.777213,-0.55108 3.554552,-1.13194 5.247992,-1.90959 1.91121,-0.94708 3.915847,-1.62853 5.831627,-2.54941 -52.253778,30.21844 38.03421,-22.10966 -13.777815,8.10276 -0.336742,0.19641 0.674048,-0.39225 1.000879,-0.60466 1.299598,-0.84457 0.974127,-0.63795 2.101299,-1.75189 1.829769,-1.96186 2.56307,-4.32175 2.4146,-7.01089 -0.0439,-1.72735 -0.0768,-3.45366 -0.25161,-5.17429 -0.0449,-0.44228 -0.554738,-1.09194 -0.17458,-1.32226 16.169667,-9.79383 22.950047,-5.85054 16.728277,-9.2981 -0.67939,1.98806 -0.45253,4.00209 -0.68008,6.07217 -0.51684,2.6927 -1.23215,4.0478 -3.38095,5.86884 -0.76375,0.44011 -13.897167,9.6744 -20.665354,11.26961 -0.96853,0.22824 -0.818156,0.17125 -1.815647,0.17972 -8.755364,0.0808 -8.880065,1.91999 11.804804,-11.34639 1.8202,0.16893 3.69721,0.0713 5.535777,0.10297 2.15791,0.0155 4.31505,-0.0333 6.47286,-0.0333 3.34056,-0.0472 6.69368,-0.22567 9.98195,-0.84995 7.76595,-1.74994 22.26128,-11.18696 -7.48121,5.94475 1.56535,-0.57985 2.79573,-1.84707 3.9963,-3.01171 0.71554,-0.74634 0.82745,-1.39859 1.31238,-2.27007 3.54801,-6.3761 21.32794,-3.56581 18.61762,-11.5082 3.23211,-1.44262 6.66259,-2.14908 10.13635,-2.78161 0.87949,-0.20513 3.53554,-0.81546 4.39197,-1.05305 0.66704,-0.1851 2.56826,-0.98789 1.98223,-0.61938 -33.1731,20.85915 -18.98907,7.63018 -13.29176,8.74883 0.0837,0.006 0.29838,0.0843 0.25135,0.0155 -0.9672,-1.42779 -3.26832,-1.31441 -3.12525,-4.13721 0.40157,-2.52061 1.10835,-5.01493 2.85467,-6.95518 5.26569,-6.08065 0.65364,-0.97001 18.26732,-11.26623 2.1326,-1.24664 4.5385,-1.9433 6.94444,-2.42038 5.40713,-0.56433 10.87584,-0.28427 16.28804,-0.88 2.09271,-0.18999 4.38376,-0.644 6.49623,-0.46841 0.42162,0.0352 1.56732,0 1.24045,0.26858 -4.93226,4.05251 -10.21001,7.66746 -15.40845,11.37238 -0.15431,0.10992 -0.37865,0.01 -0.56797,0.0128 -3.51707,0.39242 -7.0293,0.74758 -10.57665,0.56947 -5.3373,0.0513 -10.68897,0.23235 -15.962,1.13311 -3.48186,0.65099 -6.91646,1.34422 -10.25484,2.56691 -1.06462,0.38994 -4.09139,1.9268 -3.13688,1.31494 3.7946,-2.43255 19.24922,-11.3933 11.66331,-6.84211 0,0 -17.82882,6.97592 -17.82882,6.97592 z"
       inkscape:connector-curvature="0" />
    <path
       style="fill:#000000;fill-opacity:1;stroke:none;stroke-width:3;stroke-miterlimit:4;stroke-dasharray:none;stroke-opacity:1"
       id="path4205"
       d="m 51.110565,893.93436 c -0.888452,-1.56404 -2.363226,-2.48292 -3.886086,-3.33684 0,0 16.140576,-10.39774 16.140576,-10.39774 l 0,0 c 1.603581,1.1119 3.150498,2.30426 4.290301,3.91611 0,0 -16.544791,9.81847 -16.544791,9.81847 z"
       inkscape:connector-curvature="0" />
  </g>
</svg>
