<?xml version="1.0" encoding="UTF-8" standalone="no"?>
<!-- Created with Inkscape (http://www.inkscape.org/) -->

<svg
   xmlns:dc="http://purl.org/dc/elements/1.1/"
   xmlns:cc="http://creativecommons.org/ns#"
   xmlns:rdf="http://www.w3.org/1999/02/22-rdf-syntax-ns#"
   xmlns:svg="http://www.w3.org/2000/svg"
   xmlns="http://www.w3.org/2000/svg"
   xmlns:sodipodi="http://sodipodi.sourceforge.net/DTD/sodipodi-0.dtd"
   xmlns:inkscape="http://www.inkscape.org/namespaces/inkscape"
   version="1.1"
   width="500"
   height="500"
   id="svg2"
   inkscape:version="0.48.4 r9939"
   sodipodi:docname="team.svg.2017_02_21_16_38_30.0.svg">
  <sodipodi:namedview
     pagecolor="#ffffff"
     bordercolor="#666666"
     borderopacity="1"
     objecttolerance="10"
     gridtolerance="10"
     guidetolerance="10"
     inkscape:pageopacity="0"
     inkscape:pageshadow="2"
     inkscape:window-width="1871"
     inkscape:window-height="1056"
     id="namedview9"
     showgrid="true"
     inkscape:zoom="1.5696131"
     inkscape:cx="266.39831"
     inkscape:cy="241.19957"
     inkscape:window-x="49"
     inkscape:window-y="24"
     inkscape:window-maximized="1"
     inkscape:current-layer="svg2"
     showguides="true"
     inkscape:guide-bbox="true">
    <inkscape:grid
       type="xygrid"
       id="grid2987" />
  </sodipodi:namedview>
  <defs
     id="defs4" />
  <metadata
     id="metadata7">
    <rdf:RDF>
      <cc:Work
         rdf:about="">
        <dc:format>image/svg+xml</dc:format>
        <dc:type
           rdf:resource="http://purl.org/dc/dcmitype/StillImage" />
        <dc:title />
      </cc:Work>
    </rdf:RDF>
  </metadata>
  <path
     style="fill:#000000;fill-opacity:1;stroke:none"
     d="m 255.61914,16.5867 c -38.97744,0 -70.56535,31.644089 -70.56535,70.621538 0,38.577572 30.96033,69.870022 69.38552,70.509172 l -9.55105,19.10209 8.0903,10.16905 -6.68573,92.47657 -52.08128,-112.75849 c -40.55685,20.27843 -40.56384,60.84576 -40.56384,60.84576 l 4.32606,22.41686 -24.49562,53.03638 -5.95535,-82.08279 7.19137,-8.98921 -8.98921,-17.97844 -8.98922,17.97844 7.19137,8.98921 -5.95535,82.08279 -46.182105,-100.06122 c -35.956868,17.97843 -35.956869,53.9353 -35.956869,53.9353 l 44.946086,233.71965 89.892168,0 16.7986,-87.25159 16.85478,87.81341 101.40961,0 16.40532,-85.45374 16.57387,86.07175 89.89217,0 44.94608,-233.71964 c 0,0 0,-35.95687 -35.95686,-53.93531 l -46.18211,100.06123 -5.95535,-82.08279 7.19137,-8.98922 -8.98922,-17.97843 -8.98921,17.97843 7.19137,8.98922 -5.95536,82.0266 -24.15852,-52.306 4.66316,-24.27089 c 0,0 -0.007,-40.56733 -40.56384,-60.84576 l -52.0251,112.87086 -6.74191,-92.58894 8.09029,-10.16905 -9.49486,-19.04591 c 38.95165,-0.0303 70.56536,-31.60662 70.56536,-70.565352 0,-38.977449 -31.6441,-70.621538 -70.62154,-70.621538 z M 126.5677,69.173621 c -34.112033,0 -61.800871,27.632655 -61.800871,61.744689 0,34.11203 27.688838,61.80086 61.800871,61.80086 34.11202,0 61.74468,-27.68883 61.74468,-61.80086 0,-34.112034 -27.63266,-61.744689 -61.74468,-61.744689 z m 256.30505,3.595686 c -33.24975,0 -60.22776,26.921825 -60.22776,60.171573 0,33.24975 26.97801,60.22776 60.22776,60.22776 33.24974,0 60.17157,-26.97801 60.17157,-60.22776 0,-33.249748 -26.92183,-60.171573 -60.17157,-60.171573 z"
     id="path2989-6"
     inkscape:connector-curvature="0" />
</svg>
